<?xml version="1.0" standalone="no"?>
<!DOCTYPE svg PUBLIC "-//W3C//DTD SVG 20010904//EN"
 "http://www.w3.org/TR/2001/REC-SVG-20010904/DTD/svg10.dtd">
<svg version="1.0" xmlns="http://www.w3.org/2000/svg"
 width="700.000000pt" height="700.000000pt" viewBox="0 0 700.000000 700.000000"
 preserveAspectRatio="xMidYMid meet">
<metadata>
Created by potrace 1.14, written by Peter Selinger 2001-2017
</metadata>
<g transform="translate(0.000000,700.000000) scale(0.100000,-0.100000)"
fill="#000000" stroke="none">
<path d="M2117 6704 c-1 -1 -24 -4 -52 -8 -138 -17 -264 -78 -363 -175 -58
-56 -70 -63 -111 -67 -25 -2 -59 -7 -76 -11 -16 -4 -32 -7 -35 -8 -58 -13 -88
-25 -160 -62 -160 -82 -288 -237 -316 -382 -3 -14 -7 -28 -10 -32 -10 -17 -4
-177 9 -224 8 -27 29 -81 48 -119 24 -49 30 -71 21 -74 -24 -8 -128 -89 -171
-134 -152 -160 -214 -350 -186 -563 25 -183 160 -377 338 -484 33 -20 36 -25
25 -40 -33 -41 -73 -139 -84 -206 -10 -58 -7 -164 6 -210 32 -110 68 -171 150
-258 111 -118 262 -188 454 -211 29 -3 48 -14 80 -48 127 -134 292 -201 485
-197 177 3 326 64 441 179 36 36 80 93 98 128 51 95 60 172 58 495 -1 153 1
283 5 288 3 6 248 9 640 7 632 -3 634 -3 675 -25 45 -24 90 -72 106 -112 9
-25 18 -164 11 -186 -2 -6 -59 -10 -148 -9 l-145 1 0 -568 0 -569 490 0 490 0
0 568 0 568 -286 0 c-157 -1 -289 1 -293 4 -4 3 -7 34 -6 70 3 189 -91 309
-266 339 -30 6 -315 10 -634 10 -319 0 -593 0 -610 0 l-30 1 1 128 c1 70 2
132 3 137 1 13 1581 16 1581 3 0 -4 16 -26 36 -48 111 -122 334 -57 336 99 0
43 -19 86 -54 117 -36 33 -63 44 -122 48 -71 6 -141 -27 -176 -81 l-23 -38
-789 0 c-694 0 -788 2 -789 15 -7 87 -2 380 6 382 6 0 363 2 793 3 782 1 784
1 792 -19 13 -33 62 -74 105 -89 125 -41 255 36 257 152 1 116 -130 197 -251
156 -54 -18 -86 -43 -106 -82 l-15 -28 -790 0 c-434 0 -790 2 -791 5 -4 19 -3
270 1 271 3 0 289 2 635 4 347 1 641 5 655 8 36 9 103 40 118 54 7 7 21 18 30
25 36 26 75 90 87 141 6 28 11 100 10 159 -1 101 0 108 19 114 34 10 85 53
102 85 36 71 11 150 -65 204 -36 25 -51 29 -104 29 -72 -1 -111 -18 -156 -69
-33 -38 -38 -58 -32 -137 2 -26 61 -89 98 -105 18 -7 33 -19 34 -26 1 -6 1
-62 1 -122 1 -127 -16 -174 -76 -220 -68 -52 -75 -52 -738 -52 -340 0 -618 3
-619 6 -1 3 -2 148 -4 321 -1 173 -6 329 -9 345 -4 17 -23 64 -43 105 -70 145
-221 262 -393 303 -55 14 -195 28 -203 21z m149 -98 c133 -22 285 -128 347
-243 54 -101 53 -76 52 -1448 l-2 -1270 -22 -58 c-63 -161 -223 -283 -401
-304 -202 -24 -342 24 -476 162 l-70 73 -75 6 c-217 16 -402 135 -486 312 -36
76 -38 83 -38 184 0 118 14 169 72 256 46 72 91 117 154 157 88 55 172 85 264
93 84 8 84 8 82 54 l-2 41 -55 -2 c-151 -7 -333 -82 -436 -180 l-30 -29 -60
40 c-126 87 -230 235 -263 374 -15 63 -12 195 6 266 43 163 174 317 343 401
33 16 60 32 60 35 0 3 -15 24 -34 47 -117 143 -139 329 -58 496 37 77 149 187
232 228 70 35 195 72 205 61 4 -4 0 -29 -9 -56 -16 -48 -22 -159 -12 -212 16
-84 57 -180 76 -180 16 0 80 33 80 41 0 4 -9 23 -20 42 -49 83 -54 235 -10
334 59 135 226 259 374 280 23 3 42 6 44 8 4 3 130 -3 168 -9z m2034 -371 c61
-31 51 -111 -16 -134 -38 -13 -44 -13 -74 5 -57 33 -57 102 0 131 33 17 55 16
90 -2z m279 -980 c30 -15 41 -33 41 -69 0 -23 -32 -65 -53 -68 -54 -7 -70 -3
-96 21 -70 66 20 162 108 116z m24 -507 c37 -43 16 -101 -42 -119 -34 -10 -44
-9 -72 7 -81 48 -35 154 61 139 19 -3 43 -15 53 -27z"/>
<path d="M2045 6442 c-116 -39 -194 -122 -214 -227 l-8 -45 53 0 c48 0 54 2
54 20 0 88 111 180 219 180 118 0 225 -80 233 -174 2 -24 6 -26 55 -26 l52 0
-6 38 c-8 52 -50 127 -92 164 -87 77 -235 107 -346 70z"/>
<path d="M2159 5908 c-5 -15 -4 -80 1 -83 4 -2 22 -7 40 -10 169 -30 240 -206
130 -323 -34 -36 -68 -54 -123 -67 -52 -11 -52 -12 -52 -51 l0 -39 50 3 c178
9 317 191 269 352 -34 114 -140 197 -276 216 -21 3 -38 4 -39 2z"/>
<path d="M1500 5345 c-74 -20 -98 -32 -145 -76 -43 -40 -65 -74 -80 -128 -12
-39 -7 -128 9 -165 19 -46 65 -106 80 -106 20 0 72 60 60 68 -29 18 -54 79
-54 130 0 114 72 186 198 198 61 6 141 -13 173 -42 14 -12 20 -10 54 19 l38
33 -35 22 c-84 52 -208 72 -298 47z"/>
<path d="M2059 4486 c-254 -68 -313 -360 -102 -505 39 -27 96 -47 154 -55 l45
-6 0 44 c0 44 -1 44 -39 50 -123 20 -208 126 -185 231 18 82 74 134 168 158
l55 14 1 42 c1 38 -1 41 -25 40 -14 0 -47 -6 -72 -13z"/>
<path d="M1341 3981 c16 -105 107 -219 209 -263 50 -22 178 -49 183 -39 3 5 2
51 -1 77 -1 6 -25 14 -52 17 -109 13 -204 94 -235 200 l-16 57 -48 0 -48 0 8
-49z"/>
<path d="M2382 3695 c-6 -70 -83 -146 -170 -167 l-57 -14 0 -39 c0 -36 3 -40
25 -41 39 -2 121 25 172 57 71 46 123 124 132 199 3 30 3 30 -48 30 -48 0 -52
-2 -54 -25z"/>
<path d="M5257 3945 c-2 -9 -1 -1060 2 -1107 1 -17 40 -18 666 -18 l665 0 1
33 c0 17 1 241 1 497 1 402 -1 469 -15 495 -20 39 -45 67 -82 91 -28 18 -55
19 -632 19 -408 1 -603 -3 -606 -10z"/>
<path d="M3425 3881 c-373 -142 -674 -384 -896 -720 -66 -100 -179 -308 -179
-330 0 -8 175 -11 594 -11 557 0 594 1 598 18 9 38 2 1076 -7 1078 -6 2 -55
-14 -110 -35z"/>
<path d="M2438 2452 l-216 -2 -8 -33 c-3 -17 -7 -343 -7 -724 l1 -692 22 -45
c15 -33 35 -54 67 -72 41 -25 53 -27 176 -28 l132 -1 3 30 c11 124 60 264 127
364 148 223 393 345 660 328 180 -12 326 -79 461 -212 129 -128 198 -268 219
-445 4 -30 9 -57 11 -60 7 -7 615 -6 620 1 2 4 6 28 9 55 26 257 207 504 442
604 187 80 409 78 589 -4 238 -109 402 -336 430 -596 3 -25 6 -50 8 -55 3 -9
135 -12 261 -6 39 2 105 54 127 100 21 43 21 51 22 767 l1 724 -45 0 c-802 3
-3957 4 -4112 2z"/>
<path d="M3260 1201 c-79 -17 -168 -80 -219 -155 -130 -192 -61 -447 147 -548
60 -29 76 -32 157 -33 77 0 98 4 147 27 247 115 298 441 98 622 -85 77 -218
112 -330 87z"/>
<path d="M5317 1185 c-125 -51 -200 -138 -230 -272 -40 -171 48 -345 213 -421
45 -21 71 -25 145 -26 81 -1 96 2 155 30 139 67 221 201 214 351 -9 212 -174
368 -383 362 -36 -1 -83 -11 -114 -24z"/>
</g>
</svg>
